<mxfile host="Electron" modified="2023-05-25T15:31:39.851Z" agent="Mozilla/5.0 (X11; Linux x86_64) AppleWebKit/537.36 (KHTML, like Gecko) draw.io/21.1.2 Chrome/106.0.5249.199 Electron/21.4.3 Safari/537.36" etag="7jbQuliDiKYT_Ge5AVTq" version="21.1.2" type="device">
  <diagram id="D1HtAhjjhCdzmTIrUNiw" name="Page-1">
    <mxGraphModel dx="989" dy="579" grid="1" gridSize="10" guides="1" tooltips="1" connect="1" arrows="1" fold="1" page="1" pageScale="1" pageWidth="1100" pageHeight="850" math="0" shadow="0">
      <root>
        <mxCell id="0" />
        <mxCell id="1" parent="0" />
        <mxCell id="RKtE-RcdQLuOazLYt7UI-1" value="Program (node A)" style="rounded=1;whiteSpace=wrap;html=1;strokeWidth=1;fontFamily=Times New Roman;fontSize=17;align=center;verticalAlign=top;spacingRight=0;spacingLeft=0;spacingTop=0;spacing=0;absoluteArcSize=1;arcSize=15;fontStyle=0;shadow=0;sketch=0;" parent="1" vertex="1">
          <mxGeometry x="120" y="520" width="160" height="190" as="geometry" />
        </mxCell>
        <mxCell id="ndBVuP0blL1DrdvLQmUZ-20" value="End node" style="rounded=0;whiteSpace=wrap;html=1;shadow=0;glass=0;sketch=0;fillWeight=1;hachureGap=-1;jiggle=0;fillStyle=grid;sketchStyle=rough;fontFamily=Times New Roman;fontSize=17;strokeWidth=1;spacing=0;align=right;spacingRight=13;fillColor=#F2F4F4;strokeColor=#94A4A2;" parent="1" vertex="1">
          <mxGeometry x="320" y="320" width="100" height="25" as="geometry" />
        </mxCell>
        <mxCell id="ndBVuP0blL1DrdvLQmUZ-14" value="" style="verticalLabelPosition=bottom;verticalAlign=top;html=1;shape=mxgraph.basic.patternFillRect;fillStyle=diag;step=5;fillStrokeWidth=4;fillStrokeColor=#FFFFFF;shadow=0;glass=0;sketch=0;fillWeight=1;hachureGap=-1;jiggle=0;sketchStyle=rough;fontFamily=Times New Roman;fontSize=17;strokeWidth=1;fillColor=#000000;" parent="1" vertex="1">
          <mxGeometry x="330" y="411" width="160" height="4" as="geometry" />
        </mxCell>
        <mxCell id="HOQ9eJgj0v2eyHVtLmr2-1" value="" style="endArrow=classic;startArrow=classic;html=1;" parent="1" edge="1">
          <mxGeometry width="50" height="50" relative="1" as="geometry">
            <mxPoint x="120" y="160" as="sourcePoint" />
            <mxPoint x="1000" y="160" as="targetPoint" />
          </mxGeometry>
        </mxCell>
        <mxCell id="HOQ9eJgj0v2eyHVtLmr2-7" value="Text width (approx.)" style="edgeLabel;html=1;align=center;verticalAlign=middle;resizable=0;points=[];fontSize=17;fontFamily=Times New Roman;" parent="HOQ9eJgj0v2eyHVtLmr2-1" vertex="1" connectable="0">
          <mxGeometry x="0.5095" relative="1" as="geometry">
            <mxPoint x="-224.17" as="offset" />
          </mxGeometry>
        </mxCell>
        <mxCell id="HOQ9eJgj0v2eyHVtLmr2-2" value="" style="endArrow=classic;startArrow=classic;html=1;" parent="1" edge="1">
          <mxGeometry width="50" height="50" relative="1" as="geometry">
            <mxPoint x="120" y="200" as="sourcePoint" />
            <mxPoint x="560" y="200" as="targetPoint" />
          </mxGeometry>
        </mxCell>
        <mxCell id="HOQ9eJgj0v2eyHVtLmr2-6" value="Line width (approx.)" style="edgeLabel;html=1;align=center;verticalAlign=middle;resizable=0;points=[];fontSize=17;fontFamily=Times New Roman;spacingLeft=0;" parent="HOQ9eJgj0v2eyHVtLmr2-2" vertex="1" connectable="0">
          <mxGeometry x="0.0379" y="-1" relative="1" as="geometry">
            <mxPoint x="-8.33" as="offset" />
          </mxGeometry>
        </mxCell>
        <mxCell id="HOQ9eJgj0v2eyHVtLmr2-10" value="Text format: Times New Roman 17 pt" style="text;html=1;strokeColor=none;fillColor=none;align=left;verticalAlign=middle;whiteSpace=wrap;rounded=0;fontFamily=Times New Roman;fontSize=17;" parent="1" vertex="1">
          <mxGeometry x="120" y="30" width="280" height="20" as="geometry" />
        </mxCell>
        <mxCell id="HOQ9eJgj0v2eyHVtLmr2-24" value="Bold colors:" style="text;html=1;strokeColor=none;fillColor=none;align=left;verticalAlign=middle;whiteSpace=wrap;rounded=0;fontFamily=Times New Roman;fontSize=17;" parent="1" vertex="1">
          <mxGeometry x="120" y="70" width="100" height="20" as="geometry" />
        </mxCell>
        <mxCell id="HOQ9eJgj0v2eyHVtLmr2-25" value="" style="rounded=0;whiteSpace=wrap;html=1;fontFamily=Times New Roman;fontSize=17;align=center;strokeColor=none;fillColor=#3f90da;" parent="1" vertex="1">
          <mxGeometry x="230" y="70" width="20" height="20" as="geometry" />
        </mxCell>
        <mxCell id="HOQ9eJgj0v2eyHVtLmr2-26" value="" style="rounded=0;whiteSpace=wrap;html=1;fontFamily=Times New Roman;fontSize=17;align=center;strokeColor=none;fillColor=#ffa90e;" parent="1" vertex="1">
          <mxGeometry x="350" y="70" width="20" height="20" as="geometry" />
        </mxCell>
        <mxCell id="HOQ9eJgj0v2eyHVtLmr2-27" value="" style="rounded=0;whiteSpace=wrap;html=1;fontFamily=Times New Roman;fontSize=17;align=center;strokeColor=none;fillColor=#bd1f01;" parent="1" vertex="1">
          <mxGeometry x="470" y="70" width="20" height="20" as="geometry" />
        </mxCell>
        <mxCell id="HOQ9eJgj0v2eyHVtLmr2-28" value="" style="rounded=0;whiteSpace=wrap;html=1;fontFamily=Times New Roman;fontSize=17;align=center;strokeColor=none;fillColor=#94A4A2;" parent="1" vertex="1">
          <mxGeometry x="590" y="70" width="20" height="20" as="geometry" />
        </mxCell>
        <mxCell id="HOQ9eJgj0v2eyHVtLmr2-29" value="&lt;span style=&quot;text-align: left&quot;&gt;#94A4A2&lt;/span&gt;" style="text;html=1;strokeColor=none;fillColor=none;align=center;verticalAlign=middle;whiteSpace=wrap;rounded=0;fontFamily=Courier New;fontSize=17;" parent="1" vertex="1">
          <mxGeometry x="610" y="70" width="80" height="20" as="geometry" />
        </mxCell>
        <mxCell id="HOQ9eJgj0v2eyHVtLmr2-30" value="&lt;span style=&quot;text-align: left&quot;&gt;#BD1F01&lt;/span&gt;" style="text;html=1;strokeColor=none;fillColor=none;align=center;verticalAlign=middle;whiteSpace=wrap;rounded=0;fontFamily=Courier New;fontSize=17;" parent="1" vertex="1">
          <mxGeometry x="490" y="70" width="80" height="20" as="geometry" />
        </mxCell>
        <mxCell id="HOQ9eJgj0v2eyHVtLmr2-31" value="&lt;span style=&quot;text-align: left&quot;&gt;#FFA90E&lt;/span&gt;" style="text;html=1;strokeColor=none;fillColor=none;align=center;verticalAlign=middle;whiteSpace=wrap;rounded=0;fontFamily=Courier New;fontSize=17;" parent="1" vertex="1">
          <mxGeometry x="370" y="70" width="80" height="20" as="geometry" />
        </mxCell>
        <mxCell id="HOQ9eJgj0v2eyHVtLmr2-32" value="&lt;span style=&quot;text-align: left&quot;&gt;#3F90DA&lt;/span&gt;" style="text;html=1;strokeColor=none;fillColor=none;align=center;verticalAlign=middle;whiteSpace=wrap;rounded=0;fontFamily=Courier New;fontSize=17;" parent="1" vertex="1">
          <mxGeometry x="250" y="70" width="80" height="20" as="geometry" />
        </mxCell>
        <mxCell id="HOQ9eJgj0v2eyHVtLmr2-33" value="Light colors:" style="text;html=1;strokeColor=none;fillColor=none;align=left;verticalAlign=middle;whiteSpace=wrap;rounded=0;fontFamily=Times New Roman;fontSize=17;" parent="1" vertex="1">
          <mxGeometry x="120" y="110" width="100" height="20" as="geometry" />
        </mxCell>
        <mxCell id="HOQ9eJgj0v2eyHVtLmr2-34" value="" style="rounded=0;whiteSpace=wrap;html=1;fontFamily=Times New Roman;fontSize=17;align=center;strokeColor=none;fillColor=#ecf1f8;" parent="1" vertex="1">
          <mxGeometry x="230" y="110" width="20" height="20" as="geometry" />
        </mxCell>
        <mxCell id="HOQ9eJgj0v2eyHVtLmr2-35" value="" style="rounded=0;whiteSpace=wrap;html=1;fontFamily=Times New Roman;fontSize=17;align=center;strokeColor=none;fillColor=#fff5e5;" parent="1" vertex="1">
          <mxGeometry x="350" y="110" width="20" height="20" as="geometry" />
        </mxCell>
        <mxCell id="HOQ9eJgj0v2eyHVtLmr2-36" value="" style="rounded=0;whiteSpace=wrap;html=1;fontFamily=Times New Roman;fontSize=17;align=center;strokeColor=none;fillColor=#ffece9;" parent="1" vertex="1">
          <mxGeometry x="470" y="110" width="20" height="20" as="geometry" />
        </mxCell>
        <mxCell id="HOQ9eJgj0v2eyHVtLmr2-37" value="" style="rounded=0;whiteSpace=wrap;html=1;fontFamily=Times New Roman;fontSize=17;align=center;strokeColor=none;fillColor=#F2F4F4;" parent="1" vertex="1">
          <mxGeometry x="590" y="110" width="20" height="20" as="geometry" />
        </mxCell>
        <mxCell id="HOQ9eJgj0v2eyHVtLmr2-38" value="&lt;span style=&quot;text-align: left&quot;&gt;#&lt;/span&gt;F2F4F4" style="text;html=1;strokeColor=none;fillColor=none;align=center;verticalAlign=middle;whiteSpace=wrap;rounded=0;fontFamily=Courier New;fontSize=17;" parent="1" vertex="1">
          <mxGeometry x="610" y="110" width="80" height="20" as="geometry" />
        </mxCell>
        <mxCell id="HOQ9eJgj0v2eyHVtLmr2-39" value="&lt;span style=&quot;text-align: left&quot;&gt;#&lt;/span&gt;FFECE9" style="text;html=1;strokeColor=none;fillColor=none;align=center;verticalAlign=middle;whiteSpace=wrap;rounded=0;fontFamily=Courier New;fontSize=17;" parent="1" vertex="1">
          <mxGeometry x="490" y="110" width="80" height="20" as="geometry" />
        </mxCell>
        <mxCell id="HOQ9eJgj0v2eyHVtLmr2-40" value="&lt;span style=&quot;text-align: left&quot;&gt;#&lt;/span&gt;FFF5E5" style="text;html=1;strokeColor=none;fillColor=none;align=center;verticalAlign=middle;whiteSpace=wrap;rounded=0;fontFamily=Courier New;fontSize=17;" parent="1" vertex="1">
          <mxGeometry x="370" y="110" width="80" height="20" as="geometry" />
        </mxCell>
        <mxCell id="HOQ9eJgj0v2eyHVtLmr2-41" value="&lt;span style=&quot;text-align: left&quot;&gt;#&lt;/span&gt;ECF1F8" style="text;html=1;strokeColor=none;fillColor=none;align=center;verticalAlign=middle;whiteSpace=wrap;rounded=0;fontFamily=Courier New;fontSize=17;" parent="1" vertex="1">
          <mxGeometry x="250" y="110" width="80" height="20" as="geometry" />
        </mxCell>
        <mxCell id="PxhoU1N86w6rkpq-SPUx-25" value="" style="rounded=0;whiteSpace=wrap;html=1;fontFamily=Times New Roman;fontSize=17;align=center;strokeColor=none;fillColor=#832DB6;" parent="1" vertex="1">
          <mxGeometry x="710" y="70" width="20" height="20" as="geometry" />
        </mxCell>
        <mxCell id="PxhoU1N86w6rkpq-SPUx-26" value="&lt;span style=&quot;text-align: left&quot;&gt;#&lt;/span&gt;832DB6" style="text;html=1;strokeColor=none;fillColor=none;align=center;verticalAlign=middle;whiteSpace=wrap;rounded=0;fontFamily=Courier New;fontSize=17;" parent="1" vertex="1">
          <mxGeometry x="730" y="70" width="80" height="20" as="geometry" />
        </mxCell>
        <mxCell id="PxhoU1N86w6rkpq-SPUx-27" value="" style="rounded=0;whiteSpace=wrap;html=1;fontFamily=Times New Roman;fontSize=17;align=center;strokeColor=none;fillColor=#FBF0FF;" parent="1" vertex="1">
          <mxGeometry x="710" y="110" width="20" height="20" as="geometry" />
        </mxCell>
        <mxCell id="PxhoU1N86w6rkpq-SPUx-28" value="&lt;span style=&quot;text-align: left&quot;&gt;#&lt;/span&gt;FBF0FF" style="text;html=1;strokeColor=none;fillColor=none;align=center;verticalAlign=middle;whiteSpace=wrap;rounded=0;fontFamily=Courier New;fontSize=17;" parent="1" vertex="1">
          <mxGeometry x="730" y="110" width="80" height="20" as="geometry" />
        </mxCell>
        <mxCell id="ndBVuP0blL1DrdvLQmUZ-10" style="edgeStyle=orthogonalEdgeStyle;rounded=0;orthogonalLoop=1;jettySize=auto;html=1;exitX=1;exitY=0.25;exitDx=0;exitDy=0;fontFamily=Times New Roman;fontSize=17;shape=link;" parent="1" edge="1">
          <mxGeometry relative="1" as="geometry">
            <mxPoint x="490" y="388" as="targetPoint" />
            <mxPoint x="330" y="388" as="sourcePoint" />
          </mxGeometry>
        </mxCell>
        <mxCell id="ndBVuP0blL1DrdvLQmUZ-1" value="Application" style="rounded=1;whiteSpace=wrap;html=1;strokeWidth=1;fontFamily=Times New Roman;fontSize=17;align=center;verticalAlign=top;spacingRight=0;spacingLeft=0;spacingTop=0;spacing=0;absoluteArcSize=1;arcSize=15;fontStyle=0;shadow=0;sketch=0;" parent="1" vertex="1">
          <mxGeometry x="120" y="320" width="210" height="140" as="geometry" />
        </mxCell>
        <mxCell id="ndBVuP0blL1DrdvLQmUZ-3" value="Entanglement generation" style="rounded=0;whiteSpace=wrap;html=1;strokeWidth=1;fontFamily=Times New Roman;fontSize=17;align=center;spacing=0;fillColor=#ECF1F8;strokeColor=#3F90DA;" parent="1" vertex="1">
          <mxGeometry x="130" y="385" width="190" height="30" as="geometry" />
        </mxCell>
        <mxCell id="ndBVuP0blL1DrdvLQmUZ-5" value="Local quantum operations" style="rounded=0;whiteSpace=wrap;html=1;strokeWidth=1;fontFamily=Times New Roman;fontSize=17;align=center;spacing=0;fillColor=#FFF5E5;strokeColor=#FFA90E;" parent="1" vertex="1">
          <mxGeometry x="130" y="420" width="190" height="30" as="geometry" />
        </mxCell>
        <mxCell id="ndBVuP0blL1DrdvLQmUZ-6" value="Classical proc. and comm." style="rounded=0;whiteSpace=wrap;html=1;strokeWidth=1;fontFamily=Times New Roman;fontSize=17;align=center;spacing=0;fillColor=#FFECE9;strokeColor=#BD1F01;" parent="1" vertex="1">
          <mxGeometry x="130" y="350" width="190" height="30" as="geometry" />
        </mxCell>
        <mxCell id="ndBVuP0blL1DrdvLQmUZ-8" value="&lt;div style=&quot;font-size: 17px;&quot;&gt;Quantum&lt;/div&gt;&lt;div style=&quot;font-size: 17px;&quot;&gt;internet&lt;br style=&quot;font-size: 17px;&quot;&gt;&lt;/div&gt;" style="ellipse;shape=cloud;whiteSpace=wrap;html=1;fontFamily=Times New Roman;fontSize=17;sketch=0;strokeColor=default;" parent="1" vertex="1">
          <mxGeometry x="460" y="320" width="130" height="140" as="geometry" />
        </mxCell>
        <mxCell id="ndBVuP0blL1DrdvLQmUZ-15" value="Classical channel" style="text;html=1;strokeColor=none;fillColor=none;align=left;verticalAlign=middle;whiteSpace=wrap;rounded=0;fontFamily=Times New Roman;fontSize=17;spacing=0;spacingBottom=0;labelPosition=center;verticalLabelPosition=middle;" parent="1" vertex="1">
          <mxGeometry x="340" y="360" width="130" height="20" as="geometry" />
        </mxCell>
        <mxCell id="ndBVuP0blL1DrdvLQmUZ-16" value="Quantum channel" style="text;html=1;strokeColor=none;fillColor=none;align=left;verticalAlign=middle;whiteSpace=wrap;rounded=0;fontFamily=Times New Roman;fontSize=17;spacing=0;spacingBottom=0;labelPosition=center;verticalLabelPosition=middle;" parent="1" vertex="1">
          <mxGeometry x="340" y="420" width="130" height="20" as="geometry" />
        </mxCell>
        <mxCell id="RKtE-RcdQLuOazLYt7UI-2" value="Entanglement " style="rounded=0;whiteSpace=wrap;html=1;strokeWidth=1;fontFamily=Times New Roman;fontSize=17;align=center;spacing=0;fillColor=#ECF1F8;strokeColor=#3F90DA;" parent="1" vertex="1">
          <mxGeometry x="150" y="635" width="120" height="30" as="geometry" />
        </mxCell>
        <mxCell id="RKtE-RcdQLuOazLYt7UI-3" value="Gates &amp;amp; meas." style="rounded=0;whiteSpace=wrap;html=1;strokeWidth=1;fontFamily=Times New Roman;fontSize=17;align=center;spacing=0;fillColor=#FFF5E5;strokeColor=#FFA90E;" parent="1" vertex="1">
          <mxGeometry x="150" y="670" width="120" height="30" as="geometry" />
        </mxCell>
        <mxCell id="RKtE-RcdQLuOazLYt7UI-7" value="Communication" style="rounded=0;whiteSpace=wrap;html=1;strokeWidth=1;fontFamily=Times New Roman;fontSize=17;align=center;spacing=0;fillColor=#FFECE9;strokeColor=#BD1F01;" parent="1" vertex="1">
          <mxGeometry x="150" y="555" width="120" height="30" as="geometry" />
        </mxCell>
        <mxCell id="RKtE-RcdQLuOazLYt7UI-9" value="Classical" style="text;html=1;strokeColor=none;fillColor=none;align=center;verticalAlign=middle;whiteSpace=wrap;rounded=0;fontFamily=Times New Roman;fontSize=17;horizontal=0;spacing=0;" parent="1" vertex="1">
          <mxGeometry x="123" y="555" width="20" height="65" as="geometry" />
        </mxCell>
        <mxCell id="RKtE-RcdQLuOazLYt7UI-10" value="Quantum" style="text;html=1;strokeColor=none;fillColor=none;align=center;verticalAlign=middle;whiteSpace=wrap;rounded=0;fontFamily=Times New Roman;fontSize=17;horizontal=0;spacing=0;" parent="1" vertex="1">
          <mxGeometry x="123" y="635" width="20" height="65" as="geometry" />
        </mxCell>
        <mxCell id="RKtE-RcdQLuOazLYt7UI-11" value="Processing" style="rounded=0;whiteSpace=wrap;html=1;strokeWidth=1;fontFamily=Times New Roman;fontSize=17;align=center;spacing=0;fillColor=#FFECE9;strokeColor=#BD1F01;" parent="1" vertex="1">
          <mxGeometry x="150" y="590" width="120" height="30" as="geometry" />
        </mxCell>
        <mxCell id="RKtE-RcdQLuOazLYt7UI-12" value="Program (node B)" style="rounded=1;whiteSpace=wrap;html=1;strokeWidth=1;fontFamily=Times New Roman;fontSize=17;align=center;verticalAlign=top;spacingRight=0;spacingLeft=0;spacingTop=0;spacing=0;absoluteArcSize=1;arcSize=15;fontStyle=0;shadow=0;sketch=0;" parent="1" vertex="1">
          <mxGeometry x="420" y="520" width="160" height="190" as="geometry" />
        </mxCell>
        <mxCell id="RKtE-RcdQLuOazLYt7UI-13" value="Entanglement " style="rounded=0;whiteSpace=wrap;html=1;strokeWidth=1;fontFamily=Times New Roman;fontSize=17;align=center;spacing=0;fillColor=#ECF1F8;strokeColor=#3F90DA;" parent="1" vertex="1">
          <mxGeometry x="450" y="635" width="120" height="30" as="geometry" />
        </mxCell>
        <mxCell id="RKtE-RcdQLuOazLYt7UI-14" value="Gates &amp;amp; meas." style="rounded=0;whiteSpace=wrap;html=1;strokeWidth=1;fontFamily=Times New Roman;fontSize=17;align=center;spacing=0;fillColor=#FFF5E5;strokeColor=#FFA90E;" parent="1" vertex="1">
          <mxGeometry x="450" y="670" width="120" height="30" as="geometry" />
        </mxCell>
        <mxCell id="RKtE-RcdQLuOazLYt7UI-15" value="Communication" style="rounded=0;whiteSpace=wrap;html=1;strokeWidth=1;fontFamily=Times New Roman;fontSize=17;align=center;spacing=0;fillColor=#FFECE9;strokeColor=#BD1F01;" parent="1" vertex="1">
          <mxGeometry x="450" y="555" width="120" height="30" as="geometry" />
        </mxCell>
        <mxCell id="RKtE-RcdQLuOazLYt7UI-16" value="Classical" style="text;html=1;strokeColor=none;fillColor=none;align=center;verticalAlign=middle;whiteSpace=wrap;rounded=0;fontFamily=Times New Roman;fontSize=17;horizontal=0;spacing=0;" parent="1" vertex="1">
          <mxGeometry x="423" y="555" width="20" height="65" as="geometry" />
        </mxCell>
        <mxCell id="RKtE-RcdQLuOazLYt7UI-17" value="Quantum" style="text;html=1;strokeColor=none;fillColor=none;align=center;verticalAlign=middle;whiteSpace=wrap;rounded=0;fontFamily=Times New Roman;fontSize=17;horizontal=0;spacing=0;" parent="1" vertex="1">
          <mxGeometry x="423" y="635" width="20" height="65" as="geometry" />
        </mxCell>
        <mxCell id="RKtE-RcdQLuOazLYt7UI-19" value="" style="verticalLabelPosition=bottom;verticalAlign=top;html=1;shape=mxgraph.basic.patternFillRect;fillStyle=diag;step=5;fillStrokeWidth=4;fillStrokeColor=#FFFFFF;shadow=0;glass=0;sketch=0;fillWeight=1;hachureGap=-1;jiggle=0;sketchStyle=rough;fontFamily=Times New Roman;fontSize=17;strokeWidth=1;fillColor=#000000;" parent="1" vertex="1">
          <mxGeometry x="280" y="665" width="140" height="4" as="geometry" />
        </mxCell>
        <mxCell id="RKtE-RcdQLuOazLYt7UI-18" value="Processing" style="rounded=0;whiteSpace=wrap;html=1;strokeWidth=1;fontFamily=Times New Roman;fontSize=17;align=center;spacing=0;fillColor=#FFECE9;strokeColor=#BD1F01;" parent="1" vertex="1">
          <mxGeometry x="450" y="590" width="120" height="30" as="geometry" />
        </mxCell>
        <mxCell id="RKtE-RcdQLuOazLYt7UI-20" style="edgeStyle=orthogonalEdgeStyle;rounded=0;orthogonalLoop=1;jettySize=auto;html=1;exitX=1;exitY=0.25;exitDx=0;exitDy=0;fontFamily=Times New Roman;fontSize=17;shape=link;" parent="1" edge="1">
          <mxGeometry relative="1" as="geometry">
            <mxPoint x="420" y="587" as="targetPoint" />
            <mxPoint x="280" y="587" as="sourcePoint" />
          </mxGeometry>
        </mxCell>
        <mxCell id="RKtE-RcdQLuOazLYt7UI-21" value="Classical channel" style="text;html=1;strokeColor=none;fillColor=none;align=center;verticalAlign=middle;whiteSpace=wrap;rounded=0;fontFamily=Times New Roman;fontSize=17;spacing=0;spacingBottom=0;labelPosition=center;verticalLabelPosition=middle;" parent="1" vertex="1">
          <mxGeometry x="280" y="560" width="140" height="20" as="geometry" />
        </mxCell>
        <mxCell id="RKtE-RcdQLuOazLYt7UI-23" value="Quantum channel" style="text;html=1;strokeColor=none;fillColor=none;align=center;verticalAlign=middle;whiteSpace=wrap;rounded=0;fontFamily=Times New Roman;fontSize=17;spacing=0;spacingBottom=0;labelPosition=center;verticalLabelPosition=middle;" parent="1" vertex="1">
          <mxGeometry x="280" y="640" width="140" height="20" as="geometry" />
        </mxCell>
      </root>
    </mxGraphModel>
  </diagram>
</mxfile>
